<svg xmlns="http://www.w3.org/2000/svg" height="48" viewBox="0 96 960 960" width="48"><path d="M806.437 952.717q-128.785 0-254.656-61.893-125.872-61.893-225.544-161.402-99.672-99.509-161.552-226.031-61.881-126.521-61.881-254.648 0-22.33 14.185-36.634 14.185-14.305 36.555-14.305h153.26q17.547 0 30.985 11.435 13.438 11.435 17.102 30.261l28.522 132.63q2.478 17.348-1.188 30.791-3.666 13.443-12.16 21.297l-103.521 103.13q52.043 86.609 119.048 152.865 67.005 66.257 146.582 111.048l102.043-102.805q10.913-11.913 24.329-16.63 13.415-4.717 27.954-1l128.239 29.087q18.701 4.571 30.579 18.796 11.878 14.226 11.878 32.813v150.217q0 22.609-14.185 36.794-14.185 14.184-36.574 14.184ZM228.152 457.239l77.957-77.522-22.771-104.608H182.109q-.479 37.812 10.276 81.322 10.754 43.509 35.767 100.808Zm551.5 417.174v.261-103.5l-99.413-21.761-75.478 80.478q38.804 18.761 84.587 30.142 45.782 11.38 90.304 14.38Zm-175.891-44.522ZM228.152 457.239Z" fill="#254468"/></svg>