<svg xmlns="http://www.w3.org/2000/svg" height="48" viewBox="0 96 960 960" width="48"><path d="M479.979 571.522q31.144 0 53.844-22.179 22.699-22.178 22.699-53.322 0-31.144-22.758-53.844-22.758-22.699-53.903-22.699-31.144 0-53.263 22.758-22.12 22.758-22.12 53.903 0 31.144 22.179 53.263 22.178 22.12 53.322 22.12ZM480 885.13q128.906-117.132 190.377-212.241 61.471-95.108 61.471-168.909 0-114.346-72.926-187.087-72.927-72.741-178.906-72.741t-178.422 72.753q-72.442 72.753-72.442 186.854 0 73.763 62.46 168.681Q354.072 767.357 480 885.13Zm0 101.74Q315.049 846.89 233.449 726.562q-81.601-120.328-81.601-222.593 0-154.172 98.878-245.646 98.879-91.475 229.009-91.475t229.774 91.496q99.643 91.497 99.643 245.705 0 102.213-82.101 222.532Q644.951 846.9 480 986.87ZM480 504Z" fill="#254468"/></svg>