<svg xmlns="http://www.w3.org/2000/svg" height="48" viewBox="0 96 960 960" width="48"><path d="M288.832 984q-29.357 0-50.094-20.906Q218 942.189 218 912.832t20.698-50.095Q259.395 842 288.46 842t50.303 20.906Q360 883.811 360 913.168t-20.906 50.095Q318.189 984 288.832 984Zm397.42 0q-29.777 0-50.015-20.906Q616 942.189 616 912.832t20.427-50.095Q656.855 842 685.54 842q29.985 0 50.723 20.906Q757 883.811 757 913.168t-20.485 50.095Q716.029 984 686.252 984ZM254 326l94 195h284l106-195H254ZM151 776l121-218-146-311H44v-79h133l36.782 79H877L684 601H338l-50 96h480v79H151Zm197-255h284-284Z" fill="#254468"/></svg>
