<svg xmlns="http://www.w3.org/2000/svg" height="48" viewBox="0 96 960 960" width="48"><path d="M228 790q60-41 121.545-63.5Q411.091 704 480.48 704q69.39 0 131.874 23.268Q674.838 750.536 734 790q41-54 58.5-104.457Q810 635.086 810 576q0-140.247-94.826-235.123Q620.349 246 480.174 246 340 246 245 340.877 150 435.753 150 576q0 60 17.527 109.717T228 790Zm251.854-180q-59.011 0-99.433-40.646-40.421-40.645-40.421-99Q340 412 380.567 371t99.579-41q59.011 0 99.433 41.146Q620 412.291 620 470.646 620 529 579.433 569.5T479.854 610Zm.031 387Q393 997 317.077 964.446q-75.924-32.555-134.196-91.077-58.272-58.521-91.077-134.228Q59 663.434 59 575.151 59 491 92.21 414.087q33.211-76.914 90.965-135.237 57.754-58.324 133.545-91.587Q392.511 154 480.849 154q84.151 0 161.064 33.711 76.914 33.71 135 91.5Q835 337 868.5 414.035q33.5 77.034 33.5 162.08 0 86.885-33.263 162.92-33.263 76.036-91.587 133.79-58.323 57.754-135.271 90.964Q564.931 997 479.885 997Zm.115-91q54 0 100.5-13.5T679 840q-51.586-35.967-99.293-51.983Q532 772 480 772q-52 0-99 16t-98 52.303q51 38.304 97 52Q426 906 480 906Zm0-365q30.867 0 50.933-19.5Q551 502 551 470.5T530.933 419Q510.867 399 480 399t-50.933 20Q409 439 409 470.5t20.067 51Q449.133 541 480 541Zm0-71Zm1 369Z" fill="#254468"/></svg>
